<svg width="44" height="44" viewBox="0 0 44 44" fill="none" xmlns="http://www.w3.org/2000/svg">
<path d="M0 100C0 44.7715 44.7715 0 100 0H336C391.228 0 436 44.7715 436 100V336C436 391.228 391.228 436 336 436H100C44.7715 436 0 391.228 0 336V100Z" fill="#4F46E5"/>
<path d="M125.52 344V92.4329H226.245C244.753 92.4329 260.189 95.1762 272.554 100.663C284.92 106.15 294.214 113.765 300.438 123.51C306.662 133.173 309.773 144.31 309.773 156.922C309.773 166.748 307.808 175.388 303.877 182.84C299.947 190.21 294.542 196.27 287.663 201.019C280.866 205.687 273.087 209.004 264.324 210.969V213.426C273.906 213.835 282.872 216.538 291.225 221.533C299.66 226.528 306.498 233.53 311.739 242.538C316.98 251.464 319.6 262.11 319.6 274.475C319.6 287.823 316.284 299.738 309.651 310.22C303.099 320.62 293.395 328.85 280.539 334.91C267.682 340.97 251.836 344 233.001 344H125.52ZM178.708 300.516H222.069C236.891 300.516 247.701 297.691 254.497 292.041C261.294 286.308 264.693 278.692 264.693 269.193C264.693 262.232 263.014 256.091 259.657 250.768C256.299 245.445 251.509 241.269 245.285 238.239C239.143 235.209 231.814 233.694 223.297 233.694H178.708V300.516ZM178.708 197.703H218.138C225.426 197.703 231.896 196.434 237.546 193.895C243.279 191.275 247.782 187.589 251.058 182.84C254.416 178.09 256.094 172.399 256.094 165.766C256.094 156.676 252.86 149.347 246.39 143.778C240.003 138.21 230.913 135.425 219.121 135.425H178.708V197.703Z" fill="white"/>
</svg>
