<svg width="44" height="44" viewBox="0 0 44 44" fill="none" xmlns="http://www.w3.org/2000/svg">
<path d="M0 10.0917C0 4.51823 4.51823 0 10.0917 0H33.9083C39.4818 0 44 4.51823 44 10.0917V33.9083C44 39.4818 39.4818 44 33.9083 44H10.0917C4.51823 44 0 39.4818 0 33.9083V10.0917Z" fill="#4F46E5"/>
<path d="M12.6672 34.7156V9.32809H22.8321C24.6998 9.32809 26.2576 9.60494 27.5055 10.1586C28.7534 10.7123 29.6914 11.4809 30.3194 12.4643C30.9475 13.4395 31.2615 14.5634 31.2615 15.8361C31.2615 16.8278 31.0632 17.6997 30.6665 18.4517C30.2698 19.1955 29.7244 19.807 29.0302 20.2864C28.3443 20.7574 27.5592 21.0921 26.6749 21.2905V21.5384C27.6418 21.5797 28.5468 21.8524 29.3897 22.3565C30.2409 22.8607 30.931 23.5672 31.4599 24.4763C31.9888 25.3771 32.2532 26.4514 32.2532 27.6993C32.2532 29.0464 31.9185 30.2488 31.2491 31.3066C30.588 32.3562 29.6087 33.1867 28.3112 33.7983C27.0138 34.4098 25.4146 34.7156 23.5139 34.7156H12.6672ZM18.0348 30.3273H22.4106C23.9064 30.3273 24.9973 30.0422 25.6832 29.472C26.3692 28.8935 26.7121 28.1249 26.7121 27.1663C26.7121 26.4638 26.5427 25.844 26.2039 25.3068C25.865 24.7697 25.3816 24.3482 24.7535 24.0424C24.1337 23.7367 23.3941 23.5838 22.5346 23.5838H18.0348V30.3273ZM18.0348 19.9517H22.0139C22.7495 19.9517 23.4023 19.8236 23.9726 19.5674C24.551 19.3029 25.0056 18.931 25.3361 18.4517C25.675 17.9724 25.8444 17.398 25.8444 16.7286C25.8444 15.8113 25.518 15.0717 24.8651 14.5097C24.2205 13.9478 23.3032 13.6668 22.1131 13.6668H18.0348V19.9517Z" fill="white"/>
</svg>